<svg width="100" height="100" viewBox="0 0 100 100" fill="none" xmlns="http://www.w3.org/2000/svg">
<g clip-path="url(#clip0_2_112)">
<rect width="100" height="100" rx="50" fill="white"/>
<mask id="mask0_2_112" style="mask-type:luminance" maskUnits="userSpaceOnUse" x="-33" y="0" width="134" height="100">
<rect x="-33" width="134" height="100" fill="white"/>
</mask>
<g mask="url(#mask0_2_112)">
<path fill-rule="evenodd" clip-rule="evenodd" d="M-33 0H101V100H-33V0Z" fill="#F7FCFF"/>
<path fill-rule="evenodd" clip-rule="evenodd" d="M-33 61.1111V69.4444H101V61.1111H-33Z" fill="#E31D1C"/>
<path fill-rule="evenodd" clip-rule="evenodd" d="M-33 76.3889V84.7222H101V76.3889H-33Z" fill="#E31D1C"/>
<path fill-rule="evenodd" clip-rule="evenodd" d="M-33 30.5555V38.8889H101V30.5555H-33Z" fill="#E31D1C"/>
<path fill-rule="evenodd" clip-rule="evenodd" d="M-33 91.6667V100H101V91.6667H-33Z" fill="#E31D1C"/>
<path fill-rule="evenodd" clip-rule="evenodd" d="M-33 45.8333V54.1667H101V45.8333H-33Z" fill="#E31D1C"/>
<path fill-rule="evenodd" clip-rule="evenodd" d="M-33 0V8.33333H101V0H-33Z" fill="#E31D1C"/>
<path fill-rule="evenodd" clip-rule="evenodd" d="M-33 15.2778V23.6111H101V15.2778H-33Z" fill="#E31D1C"/>
<rect x="-33" width="83.75" height="54.1667" fill="#2E42A5"/>
<path d="M-24.4064 41.5337H-21.4006L-23.7619 43.9253L-22.8478 47.6977L-25.7892 45.5776L-28.8283 47.6977L-27.8019 43.9253L-30.5021 41.5337H-26.9758L-25.7932 38.4536L-24.4064 41.5337ZM-7.65643 41.5337H-4.65057L-7.0119 43.9253L-6.09784 47.6977L-9.03925 45.5776L-12.0783 47.6977L-11.0519 43.9253L-13.7521 41.5337H-10.2258L-9.04315 38.4536L-7.65643 41.5337ZM9.09357 41.5337H12.0994L9.7381 43.9253L10.6522 47.6977L7.71075 45.5776L4.67169 47.6977L5.69806 43.9253L2.99786 41.5337H6.52423L7.70685 38.4536L9.09357 41.5337ZM25.8436 41.5337H28.8494L26.4881 43.9253L27.4022 47.6977L24.4608 45.5776L21.4217 47.6977L22.4481 43.9253L19.7479 41.5337H23.2742L24.4568 38.4536L25.8436 41.5337ZM42.5936 41.5337H45.5994L43.2381 43.9253L44.1522 47.6977L41.2108 45.5776L38.1717 47.6977L39.1981 43.9253L36.4979 41.5337H40.0242L41.2068 38.4536L42.5936 41.5337ZM-16.0314 33.1997H-13.0256L-15.3869 35.5913L-14.4728 39.3647L-17.4142 37.2446L-20.4533 39.3647L-19.4269 35.5913L-22.1271 33.1997H-18.6008L-17.4182 30.1206L-16.0314 33.1997ZM0.718567 33.1997H3.72443L1.3631 35.5913L2.27716 39.3647L-0.664246 37.2446L-3.70331 39.3647L-2.67694 35.5913L-5.37714 33.1997H-1.85077L-0.668152 30.1206L0.718567 33.1997ZM17.4686 33.1997H20.4744L18.1131 35.5913L19.0272 39.3647L16.0858 37.2446L13.0467 39.3647L14.0731 35.5913L11.3729 33.1997H14.8992L16.0818 30.1206L17.4686 33.1997ZM34.2186 33.1997H37.2244L34.8631 35.5913L35.7772 39.3647L32.8358 37.2446L29.7967 39.3647L30.8231 35.5913L28.1229 33.1997H31.6492L32.8318 30.1206L34.2186 33.1997ZM-24.4064 24.8667H-21.4006L-23.7619 27.2583L-22.8478 31.0317L-25.7892 28.9116L-28.8283 31.0317L-27.8019 27.2583L-30.5021 24.8667H-26.9758L-25.7932 21.7876L-24.4064 24.8667ZM-7.65643 24.8667H-4.65057L-7.0119 27.2583L-6.09784 31.0317L-9.03925 28.9116L-12.0783 31.0317L-11.0519 27.2583L-13.7521 24.8667H-10.2258L-9.04315 21.7876L-7.65643 24.8667ZM9.09357 24.8667H12.0994L9.7381 27.2583L10.6522 31.0317L7.71075 28.9116L4.67169 31.0317L5.69806 27.2583L2.99786 24.8667H6.52423L7.70685 21.7876L9.09357 24.8667ZM25.8436 24.8667H28.8494L26.4881 27.2583L27.4022 31.0317L24.4608 28.9116L21.4217 31.0317L22.4481 27.2583L19.7479 24.8667H23.2742L24.4568 21.7876L25.8436 24.8667ZM42.5936 24.8667H45.5994L43.2381 27.2583L44.1522 31.0317L41.2108 28.9116L38.1717 31.0317L39.1981 27.2583L36.4979 24.8667H40.0242L41.2068 21.7876L42.5936 24.8667ZM-16.0314 16.5337H-13.0256L-15.3869 18.9253L-14.4728 22.6977L-17.4142 20.5776L-20.4533 22.6977L-19.4269 18.9253L-22.1271 16.5337H-18.6008L-17.4182 13.4536L-16.0314 16.5337ZM0.718567 16.5337H3.72443L1.3631 18.9253L2.27716 22.6977L-0.664246 20.5776L-3.70331 22.6977L-2.67694 18.9253L-5.37714 16.5337H-1.85077L-0.668152 13.4536L0.718567 16.5337ZM17.4686 16.5337H20.4744L18.1131 18.9253L19.0272 22.6977L16.0858 20.5776L13.0467 22.6977L14.0731 18.9253L11.3729 16.5337H14.8992L16.0818 13.4536L17.4686 16.5337ZM34.2186 16.5337H37.2244L34.8631 18.9253L35.7772 22.6977L32.8358 20.5776L29.7967 22.6977L30.8231 18.9253L28.1229 16.5337H31.6492L32.8318 13.4536L34.2186 16.5337ZM-24.4064 8.19968H-21.4006L-23.7619 10.5913L-22.8478 14.3647L-25.7892 12.2446L-28.8283 14.3647L-27.8019 10.5913L-30.5021 8.19968H-26.9758L-25.7932 5.12057L-24.4064 8.19968ZM-7.65643 8.19968H-4.65057L-7.0119 10.5913L-6.09784 14.3647L-9.03925 12.2446L-12.0783 14.3647L-11.0519 10.5913L-13.7521 8.19968H-10.2258L-9.04315 5.12057L-7.65643 8.19968ZM9.09357 8.19968H12.0994L9.7381 10.5913L10.6522 14.3647L7.71075 12.2446L4.67169 14.3647L5.69806 10.5913L2.99786 8.19968H6.52423L7.70685 5.12057L9.09357 8.19968ZM25.8436 8.19968H28.8494L26.4881 10.5913L27.4022 14.3647L24.4608 12.2446L21.4217 14.3647L22.4481 10.5913L19.7479 8.19968H23.2742L24.4568 5.12057L25.8436 8.19968ZM42.5936 8.19968H45.5994L43.2381 10.5913L44.1522 14.3647L41.2108 12.2446L38.1717 14.3647L39.1981 10.5913L36.4979 8.19968H40.0242L41.2068 5.12057L42.5936 8.19968Z" fill="#F7FCFF"/>
</g>
</g>
<defs>
<clipPath id="clip0_2_112">
<rect width="100" height="100" rx="50" fill="white"/>
</clipPath>
</defs>
</svg>
